<svg id="SvgjsSvg1001" width="288" height="288" xmlns="http://www.w3.org/2000/svg" version="1.1" xmlns:xlink="http://www.w3.org/1999/xlink" xmlns:svgjs="http://svgjs.com/svgjs"><svg xmlns="http://www.w3.org/2000/svg" viewBox="0 0 100 100" width="288" height="288" id="SvgjsG1008"><path d="M31 18c-7.18 0-13 5.82-13 13v39c0 7.18 5.82 13 13 13h39c7.18 0 13-5.82 13-13V31c0-7.18-5.82-13-13-13H31zm0 2h39c6.075 0 11 4.925 11 11v39c0 6.075-4.925 11-11 11H31c-6.075 0-11-4.925-11-11V31c0-6.075 4.925-11 11-11zm2.838 3C27.853 23 23 27.853 23 33.838v33.324C23 73.147 27.853 78 33.838 78h33.324C73.147 78 78 73.147 78 67.162V48.5a.5.5 0 00-1 0v18.662C77 72.595 72.595 77 67.162 77H33.838C28.405 77 24 72.595 24 67.162V33.838C24 28.405 28.405 24 33.838 24H67.5a.5.5 0 000-1H33.838zm10.394 10.875a.5.5 0 00-.064.008 33.796 33.796 0 00-8.54 2.662.5.5 0 00-.204.176c-5.381 8.055-6.855 15.964-6.125 23.715a.5.5 0 00.201.353c3.575 2.645 7.053 4.26 10.46 5.31a.5.5 0 00.552-.181c.843-1.15 1.302-1.946 1.945-3.225a.5.5 0 00-.271-.693c-.976-.367-1.893-.847-2.795-1.348.069-.072.127-.119.2-.195.198-.205.332-.337.462-.465 6.603 2.956 13.344 2.956 19.875-.006l.533.471c.073.065.118.098.187.16-.891.493-1.794.967-2.755 1.328a.5.5 0 00-.272.694c.632 1.252.998 2.112 1.86 3.283a.5.5 0 00.55.182c3.412-1.053 6.893-2.666 10.469-5.315a.5.5 0 00.2-.355c.857-8.989-1.475-16.816-6.141-23.721a.5.5 0 00-.204-.174 33.919 33.919 0 00-8.533-2.656.5.5 0 00-.521.248 24.92 24.92 0 00-.942 1.937 31.642 31.642 0 00-8.716 0 24.223 24.223 0 00-.954-1.94.5.5 0 00-.457-.253zm-.25 1.078c.315.585.662 1.264.9 1.83a.5.5 0 00.536.301c3.028-.46 6.082-.46 9.17 0a.5.5 0 00.533-.3c.24-.57.58-1.247.89-1.83a32.91 32.91 0 017.788 2.439c4.462 6.65 6.676 14.102 5.908 22.712-3.285 2.4-6.466 3.893-9.605 4.897-.538-.78-.908-1.5-1.338-2.37 1.05-.426 2.08-.893 3.045-1.468a.5.5 0 00.04-.832c-.093-.07-.418-.351-.724-.623s-.6-.538-.766-.674a.5.5 0 00-.53-.068c-6.507 3.051-13.112 3.053-19.7 0a.5.5 0 00-.531.07c-.204.17-.453.443-.727.729-.274.285-.586.587-.635.623a.5.5 0 00.04.832c.955.569 1.982 1.031 3.025 1.457-.44.846-.844 1.54-1.4 2.324-3.139-1.003-6.322-2.495-9.61-4.895-.658-7.447.755-14.957 5.895-22.707a32.816 32.816 0 017.796-2.447zM77.5 36.922a.5.5 0 00-.5.5v2a.5.5 0 001 0v-2a.5.5 0 00-.5-.5zm0 4a.5.5 0 00-.5.5v4a.5.5 0 001 0v-4a.5.5 0 00-.5-.5zM43.23 46.92c-2.352 0-4.164 2.127-4.164 4.63 0 2.51 1.843 4.63 4.164 4.63 2.351 0 4.166-2.123 4.165-4.625.036-2.516-1.815-4.635-4.165-4.635zm13.54 0c-2.353 0-4.165 2.127-4.165 4.63 0 2.51 1.843 4.63 4.165 4.63 2.35 0 4.162-2.123 4.164-4.625.036-2.516-1.815-4.635-4.164-4.635zm-13.54 1c1.746 0 3.196 1.598 3.165 3.623a.5.5 0 000 .008c.002 2.027-1.418 3.629-3.165 3.629-1.704 0-3.164-1.606-3.164-3.63 0-2.028 1.419-3.63 3.164-3.63zm13.54 0c1.745 0 3.195 1.598 3.164 3.623a.5.5 0 000 .008c0 2.028-1.418 3.629-3.164 3.629-1.705 0-3.165-1.606-3.165-3.63 0-2.028 1.42-3.63 3.165-3.63z" fill="#fff" class="color000 svgShape"/></svg></svg>