<svg id="SvgjsSvg1001" width="288" height="288" xmlns="http://www.w3.org/2000/svg" version="1.1" xmlns:xlink="http://www.w3.org/1999/xlink" xmlns:svgjs="http://svgjs.com/svgjs"><svg xmlns="http://www.w3.org/2000/svg" viewBox="0 0 100 100" width="288" height="288" id="SvgjsG1008"><path d="M31 17c-7.72 0-14 6.28-14 14v38c0 7.72 6.28 14 14 14h38c7.72 0 14-6.28 14-14V31c0-7.72-6.28-14-14-14H31zm0 2h38c6.64 0 12 5.36 12 12v38c0 6.64-5.36 12-12 12H31c-6.64 0-12-5.36-12-12V31c0-6.64 5.36-12 12-12zm2.5 3C27.155 22 22 27.155 22 33.5v33C22 72.845 27.155 78 33.5 78h33C72.845 78 78 72.845 78 66.5v-17a.5.5 0 10-1 0v17C77 72.305 72.305 77 66.5 77h-33C27.695 77 23 72.305 23 66.5v-33C23 27.695 27.695 23 33.5 23h33c.317 0 .634.02.955.049a.5.5 0 10.09-.996c-.34-.031-.686-.053-1.045-.053h-33zm43.992 14.992A.5.5 0 0077 37.5v2a.5.5 0 101 0v-2a.5.5 0 00-.508-.508zm-44.619 2.006c-.669 0-1.183.176-1.5.531-.317.356-.373.797-.373 1.157 0 .693.244 2.445 1.121 4.98.878 2.535 2.393 5.793 4.95 9.272 3.73 5.077 8.663 8.06 13.158 8.06.717 0 1.4-.173 1.925-.594.525-.42.848-1.097.848-1.906V55.93c0-.345.106-.543.271-.69.166-.146.416-.24.727-.24.38 0 .736.113 1.342.588.606.474 1.418 1.307 2.566 2.639h-.002c1.318 1.529 2.088 2.658 2.764 3.457.676.798 1.367 1.316 2.295 1.316H67c.539 0 1.02-.107 1.395-.39.375-.284.587-.75.603-1.245a2.925 2.925 0 00-.098-.787l-.005-.021-.006-.022c-.353-1.03-1.561-3.15-3.307-5.254-.945-1.138-1.891-2.283-2.287-2.85l-.002-.001-.002-.004c-.258-.359-.296-.517-.291-.637.005-.117.097-.324.316-.697l.01-.018.01-.017.02-.03.152-.23.568-.861a123.59 123.59 0 001.785-2.786 57.415 57.415 0 001.9-3.265c.55-1.036.967-1.943 1.122-2.666.081-.267.123-.53.115-.778v-.005a1.431 1.431 0 00-.514-1.057c-.33-.264-.773-.379-1.298-.379H63.15c-.609 0-1.113.197-1.476.496-.364.3-.586.679-.742 1.027v-.003s-2.228 4.847-4.868 8.17C55.926 48.862 55 50 53.5 50a.546.546 0 01-.285-.096c-.097-.075-.215-.203-.215-.654v-8.193c0-.575-.053-1.057-.326-1.46-.273-.401-.775-.597-1.301-.597H44.5c-.897 0-1.5.755-1.5 1.5 0 .419.231.76.46.988.23.228.473.402.694.614.442.423.843.939.842 2.246v5.558c0 .645-.08.99-.121 1.067-.02.038-.006.014-.004.013a.389.389 0 01-.121.012c-.078 0-.456-.16-.9-.62-.445-.458-.968-1.162-1.506-2.058-1.076-1.791-2.222-4.35-3.114-7.33l-.001-.006-.002-.007c-.206-.623-.419-1.109-.797-1.467-.379-.359-.902-.512-1.487-.512h-4.07zm0 1h4.07c.44 0 .626.074.797.236.172.163.35.493.535 1.057.914 3.047 2.083 5.665 3.211 7.545.566.941 1.119 1.698 1.645 2.24.526.543 1.013.922 1.619.922.168 0 .355-.016.545-.105.19-.09.359-.258.46-.45.206-.383.241-.834.241-1.537v-5.558c.002-1.541-.593-2.436-1.15-2.97-.279-.266-.537-.456-.682-.6-.145-.145-.164-.185-.164-.278 0-.237.145-.5.5-.5h6.873c.336 0 .398.05.473.16.074.11.154.405.154.897v8.193c0 .674.257 1.171.598 1.44.34.267.694.31.902.31 2 0 3.19-1.493 3.346-1.69 2.762-3.477 4.996-8.374 4.996-8.374v-.002h.002c.12-.269.27-.504.465-.664.194-.16.432-.27.841-.27h4.036c.377 0 .579.084.673.16.095.075.133.152.141.319.003.127-.018.287-.074.464l-.008.024-.004.023c-.105.502-.501 1.416-1.037 2.428a56.579 56.579 0 01-1.865 3.205 122.777 122.777 0 01-1.772 2.764c-.237.36-.432.652-.568.857l-.158.242c-.019.03-.033.05-.047.075-.004.006-.008.018-.012.025l-.014.023a2.36 2.36 0 00-.033.078l-.004.028c-.194.33-.385.633-.402 1.03-.019.417.16.822.478 1.265v.002c.46.656 1.39 1.772 2.333 2.908 1.667 2.009 2.865 4.185 3.12 4.924.048.202.07.368.067.49-.008.266-.075.377-.209.478-.134.101-.39.188-.791.188h-4.035c-.6 0-.917-.234-1.531-.96-.615-.728-1.42-1.898-2.77-3.466-1.165-1.35-1.996-2.218-2.705-2.773C55.25 54.246 54.619 54 54 54c-.514 0-1.012.156-1.39.492-.379.336-.609.853-.608 1.44v4.566c0 .566-.18.892-.473 1.127s-.746.373-1.3.373c-4.046 0-8.76-2.764-12.352-7.652-2.491-3.391-3.963-6.56-4.81-9.008C32.218 42.889 32 41.1 32 40.686c0-.252.043-.406.12-.49.075-.086.248-.198.753-.198zm44.62 1.994A.5.5 0 0077 42.5v4a.5.5 0 101 0v-4a.5.5 0 00-.508-.508z" fill="#fff" class="color000 svgShape"/></svg></svg>